<?xml version="1.0" encoding="UTF-8" standalone="no"?><!-- Generator: Gravit.io --><svg xmlns="http://www.w3.org/2000/svg" xmlns:xlink="http://www.w3.org/1999/xlink" style="isolation:isolate" viewBox="0 0 1920 1080" width="1920pt" height="1080pt"><defs><clipPath id="_clipPath_9BOQmMo295h72PSoRZwlzp0zttyfy2tB"><rect width="1920" height="1080"/></clipPath></defs><g clip-path="url(#_clipPath_9BOQmMo295h72PSoRZwlzp0zttyfy2tB)"><linearGradient id="_lgradient_0" x1="0" y1="0" x2="1.0132158590308369" y2="1.0132158590308367"><stop offset="0%" style="stop-color:#01002D"/><stop offset="98.69565217391305%" style="stop-color:#001A2D"/></linearGradient><rect width="1920" height="1080" style="fill:url(#_lgradient_0);"/><g style="isolation:isolate" filter="url(#YS4AH5wRVLqWYt0h7mk9EEQQyp646yWn)"><circle vector-effect="non-scaling-stroke" cx="959.9999713239074" cy="539.8499002474123" r="62.00000000000023" fill="rgb(191,142,86)" fill-opacity="0.19"/><path d=" M 916.168 583.982 Q 915.067 582.881 912.991 580.558 Q 940.247 596.759 969 585.15 C 985.509 577.794 1001.483 561.82 1004 538.15 Q 1007.839 502.045 978.138 480.85 Q 979.83 481.388 980.664 481.683 C 1004.736 490.201 1022 513.175 1022 540.15 C 1022 574.369 994.219 602.15 960 602.15 C 942.891 602.15 927.391 595.205 916.168 583.982 Z " fill="rgb(191,142,86)"/><defs><filter id="Pfwf0Q4xhnoDPWAiEUg0ib89Dulsa5qy" x="-200%" y="-200%" width="400%" height="400%" filterUnits="objectBoundingBox" color-interpolation-filters="sRGB"><feGaussianBlur xmlns="http://www.w3.org/2000/svg" in="SourceGraphic" stdDeviation="6.869774500542445"/><feOffset xmlns="http://www.w3.org/2000/svg" dx="0" dy="0" result="pf_100_offsetBlur"/><feFlood xmlns="http://www.w3.org/2000/svg" flood-color="#FFFFFF" flood-opacity="0.69"/><feComposite xmlns="http://www.w3.org/2000/svg" in2="pf_100_offsetBlur" operator="in" result="pf_100_dropShadow"/><feBlend xmlns="http://www.w3.org/2000/svg" in="SourceGraphic" in2="pf_100_dropShadow" mode="normal"/></filter></defs><g filter="url(#Pfwf0Q4xhnoDPWAiEUg0ib89Dulsa5qy)"><path d=" M 1021.888 543.628 C 1053.144 563.329 1071.925 581.785 1067.673 590.82 C 1061.446 604.054 1008.143 592.093 948.716 564.128 C 889.29 536.162 846.099 502.714 852.327 489.48 C 856.569 480.466 882.653 483.141 917.638 494.603 C 917.385 494.686 913.02 499.285 913.051 499.364 C 891.049 493.374 875.393 492.765 872.472 498.973 C 867.407 509.735 902.533 536.938 950.863 559.682 C 999.194 582.425 1042.544 592.153 1047.609 581.39 C 1050.542 575.156 1039.979 563.407 1021.19 550.204 C 1021.403 548.849 1021.845 545.698 1021.888 543.628 Z " fill="rgb(255,255,255)"/></g></g><defs><filter id="YS4AH5wRVLqWYt0h7mk9EEQQyp646yWn" x="-200%" y="-200%" width="400%" height="400%" filterUnits="objectBoundingBox" color-interpolation-filters="sRGB"><feGaussianBlur xmlns="http://www.w3.org/2000/svg" in="SourceGraphic" stdDeviation="27.908458908453685"/><feOffset xmlns="http://www.w3.org/2000/svg" dx="0" dy="0" result="pf_100_offsetBlur"/><feFlood xmlns="http://www.w3.org/2000/svg" flood-color="#FFFFFF" flood-opacity="0.72"/><feComposite xmlns="http://www.w3.org/2000/svg" in2="pf_100_offsetBlur" operator="in" result="pf_100_dropShadow"/><feBlend xmlns="http://www.w3.org/2000/svg" in="SourceGraphic" in2="pf_100_dropShadow" mode="normal"/></filter></defs><g style="mix-blend-mode:normal;" opacity="0.14"><text transform="matrix(1,0,0,1,1842.338,1077.363)" style="font-family:'Open Sans';font-weight:400;font-size:9px;font-style:normal;fill:#ffffff;stroke:none;">© Phillip Deremer</text></g></g></svg>